<?xml version="1.0" encoding="utf-8"?>
<!-- Generator: Adobe Illustrator 18.1.0, SVG Export Plug-In . SVG Version: 6.00 Build 0)  -->
<svg version="1.1" id="Layer_1" xmlns="http://www.w3.org/2000/svg" xmlns:xlink="http://www.w3.org/1999/xlink" x="0px" y="0px"
	 viewBox="0 0 89.1 45.3" enable-background="new 0 0 89.1 45.3" xml:space="preserve">
<g>
	<path fill="#00A7DF" d="M29.7,19.9c0-2.8-1.3-4.2-3.6-4.2c-2.7,0-5,2.3-5,5.7V34h-6.2V19.9c0-2.8-1.2-4.2-3.6-4.2
		c-2.7,0-5,2.4-5,5.9V34H0V10.7h6.2v2.9c1.5-2,4.5-3.5,7.4-3.5c3.2,0,5.6,1,6.8,3.3c2-2.1,4.5-3.3,8-3.3c4.5,0,7.5,2.7,7.5,7.4V34
		h-6.2V19.9z"/>
	<path fill="#F79222" d="M57,22.3c0-3.8-2.6-6.6-6.5-6.6c-3.9,0-6.5,2.8-6.5,6.6c0,3.8,2.6,6.6,6.5,6.6C54.3,28.9,57,26.1,57,22.3
		 M44.2,31.5V34H38V0h6.2v12.9c1.7-1.9,4.2-2.9,7.4-2.9c6.4,0,11.6,4.5,11.6,12.3c0,7.2-4.9,12.3-11.5,12.3
		C48.3,34.6,45.9,33.3,44.2,31.5"/>
	<path fill="#75D54F" d="M70.8,22c0,3.3,2.2,6.2,6.2,6.2c4,0,6.2-2.9,6.2-6.2S81,15.8,77,15.8C73.1,15.8,70.8,18.7,70.8,22
		 M69.7,37.5c1.6,1.1,3.7,2,6.5,2c4.2,0,6.7-2.3,6.7-6.6v-1.5c-1.4,1.4-3.7,2.5-6.8,2.5c-6.5,0-11.5-5.2-11.5-12c0-7.7,6-12,11.5-12
		c3.6,0,5.5,1.3,6.8,2.8v-2.1h6.2v21.2c0,9.7-5.4,13.4-13,13.4c-3.4,0-5.7-0.8-7.5-1.8l-0.2-5.9H69.7z"/>
</g>
</svg>
